<?xml version="1.0" encoding="UTF-8" standalone="no"?>
<!-- Created with Inkscape (http://www.inkscape.org/) -->

<svg
   xmlns:dc="http://purl.org/dc/elements/1.1/"
   xmlns:cc="http://creativecommons.org/ns#"
   xmlns:rdf="http://www.w3.org/1999/02/22-rdf-syntax-ns#"
   xmlns:svg="http://www.w3.org/2000/svg"
   xmlns="http://www.w3.org/2000/svg"
   xmlns:sodipodi="http://sodipodi.sourceforge.net/DTD/sodipodi-0.dtd"
   xmlns:inkscape="http://www.inkscape.org/namespaces/inkscape"
   version="1.1"
   width="15"
   height="34"
   viewBox="0 0 15 34"
   id="Layer_1"
   xml:space="preserve"
   inkscape:version="0.48.2 r9819"
   sodipodi:docname="cog-sprite.svg"
   inkscape:export-filename="/Users/pau/Documents/wikimedia/design/icons/uls/cog-sprite.png"
   inkscape:export-xdpi="90"
   inkscape:export-ydpi="90"><sodipodi:namedview
   pagecolor="#ffffff"
   bordercolor="#666666"
   borderopacity="1"
   objecttolerance="10"
   gridtolerance="10"
   guidetolerance="10"
   inkscape:pageopacity="0"
   inkscape:pageshadow="2"
   inkscape:window-width="1329"
   inkscape:window-height="856"
   id="namedview82"
   showgrid="false"
   inkscape:zoom="7.3750004"
   inkscape:cx="22.321498"
   inkscape:cy="30.983049"
   inkscape:window-x="0"
   inkscape:window-y="22"
   inkscape:window-maximized="0"
   inkscape:current-layer="Layer_1" /><metadata
   id="metadata7"><rdf:RDF><cc:Work
       rdf:about=""><dc:format>image/svg+xml</dc:format><dc:type
         rdf:resource="http://purl.org/dc/dcmitype/StillImage" /><dc:title></dc:title></cc:Work></rdf:RDF></metadata><defs
   id="defs5"><marker
     refX="0"
     refY="0"
     orient="auto"
     id="Arrow2Mend-5"
     style="overflow:visible"><path
       d="M 8.7185878,4.0337352 -2.2072895,0.01601326 8.7185884,-4.0017078 c -1.7454984,2.3720609 -1.7354408,5.6174519 -6e-7,8.035443 z"
       transform="scale(-0.6,-0.6)"
       id="path45132-1"
       style="font-size:12px;fill-rule:evenodd;stroke-width:0.625;stroke-linejoin:round"
       inkscape:connector-curvature="0" /></marker><marker
     refX="0"
     refY="0"
     orient="auto"
     id="DotM-00"
     style="overflow:visible"><path
       d="m -2.5,-1 c 0,2.76 -2.24,5 -5,5 -2.76,0 -5,-2.24 -5,-5 0,-2.76 2.24,-5 5,-5 2.76,0 5,2.24 5,5 z"
       transform="matrix(0.4,0,0,0.4,2.96,0.4)"
       id="path14329-2"
       style="fill-rule:evenodd;stroke:#000000;stroke-width:1pt;marker-start:none;marker-end:none"
       inkscape:connector-curvature="0" /></marker><marker
     refX="0"
     refY="0"
     orient="auto"
     id="Arrow2Mend-07"
     style="overflow:visible"><path
       d="M 8.7185878,4.0337352 -2.2072895,0.01601326 8.7185884,-4.0017078 c -1.7454984,2.3720609 -1.7354408,5.6174519 -6e-7,8.035443 z"
       transform="scale(-0.6,-0.6)"
       id="path45132-31"
       style="font-size:12px;fill-rule:evenodd;stroke-width:0.625;stroke-linejoin:round"
       inkscape:connector-curvature="0" /></marker><marker
     refX="0"
     refY="0"
     orient="auto"
     id="DotM-0"
     style="overflow:visible"><path
       d="m -2.5,-1 c 0,2.76 -2.24,5 -5,5 -2.76,0 -5,-2.24 -5,-5 0,-2.76 2.24,-5 5,-5 2.76,0 5,2.24 5,5 z"
       transform="matrix(0.4,0,0,0.4,2.96,0.4)"
       id="path14329-94"
       style="fill-rule:evenodd;stroke:#000000;stroke-width:1pt;marker-start:none;marker-end:none"
       inkscape:connector-curvature="0" /></marker><marker
     refX="0"
     refY="0"
     orient="auto"
     id="Arrow2Mend-6"
     style="overflow:visible"><path
       d="M 8.7185878,4.0337352 -2.2072895,0.01601326 8.7185884,-4.0017078 c -1.7454984,2.3720609 -1.7354408,5.6174519 -6e-7,8.035443 z"
       transform="scale(-0.6,-0.6)"
       id="path45132-8"
       style="font-size:12px;fill-rule:evenodd;stroke-width:0.625;stroke-linejoin:round"
       inkscape:connector-curvature="0" /></marker><marker
     refX="0"
     refY="0"
     orient="auto"
     id="DotM-8"
     style="overflow:visible"><path
       d="m -2.5,-1 c 0,2.76 -2.24,5 -5,5 -2.76,0 -5,-2.24 -5,-5 0,-2.76 2.24,-5 5,-5 2.76,0 5,2.24 5,5 z"
       transform="matrix(0.4,0,0,0.4,2.96,0.4)"
       id="path14329-91"
       style="fill-rule:evenodd;stroke:#000000;stroke-width:1pt;marker-start:none;marker-end:none"
       inkscape:connector-curvature="0" /></marker><clipPath
     id="clipPath3169-2"><rect
       width="748.77557"
       height="428.80975"
       x="48.992397"
       y="105.34417"
       id="rect3171-7"
       style="fill:#f5f5f4;fill-opacity:1;stroke:#888a85;stroke-width:2;stroke-miterlimit:4;stroke-opacity:1;stroke-dasharray:none;stroke-dashoffset:0" /></clipPath><clipPath
     id="clipPath22-7"><path
       d="M 0,792 1224,792 1224,0 0,0 0,792 z"
       id="path24-2"
       inkscape:connector-curvature="0" /></clipPath><clipPath
     id="clipPath6483-7"><rect
       width="548"
       height="280"
       x="67.578148"
       y="187.65627"
       id="rect6485-5"
       style="fill:#ffffff;fill-opacity:1;stroke:none" /></clipPath><clipPath
     id="clipPath10152"><rect
       width="718.58722"
       height="140.17392"
       x="-37.134048"
       y="754.14667"
       id="rect10154"
       style="fill:#555753;fill-opacity:1;stroke:#555753;stroke-width:1.83322382;stroke-miterlimit:4;stroke-opacity:1;stroke-dasharray:none;stroke-dashoffset:0" /></clipPath><marker
     refX="0"
     refY="0"
     orient="auto"
     id="Arrow2Mend-0"
     style="overflow:visible"><path
       d="M 8.7185878,4.0337352 -2.2072895,0.01601326 8.7185884,-4.0017078 c -1.7454984,2.3720609 -1.7354408,5.6174519 -6e-7,8.035443 z"
       transform="scale(-0.6,-0.6)"
       id="path45132-982"
       style="font-size:12px;fill-rule:evenodd;stroke-width:0.625;stroke-linejoin:round"
       inkscape:connector-curvature="0" /></marker><marker
     refX="0"
     refY="0"
     orient="auto"
     id="DotM-2"
     style="overflow:visible"><path
       d="m -2.5,-1 c 0,2.76 -2.24,5 -5,5 -2.76,0 -5,-2.24 -5,-5 0,-2.76 2.24,-5 5,-5 2.76,0 5,2.24 5,5 z"
       transform="matrix(0.4,0,0,0.4,2.96,0.4)"
       id="path14329-95"
       style="fill-rule:evenodd;stroke:#000000;stroke-width:1pt;marker-start:none;marker-end:none"
       inkscape:connector-curvature="0" /></marker><marker
     refX="0"
     refY="0"
     orient="auto"
     id="Arrow2Mend-2"
     style="overflow:visible"><path
       d="M 8.7185878,4.0337352 -2.2072895,0.01601326 8.7185884,-4.0017078 c -1.7454984,2.3720609 -1.7354408,5.6174519 -6e-7,8.035443 z"
       transform="scale(-0.6,-0.6)"
       id="path45132-98"
       style="font-size:12px;fill-rule:evenodd;stroke-width:0.625;stroke-linejoin:round"
       inkscape:connector-curvature="0" /></marker><marker
     refX="0"
     refY="0"
     orient="auto"
     id="DotM-5"
     style="overflow:visible"><path
       d="m -2.5,-1 c 0,2.76 -2.24,5 -5,5 -2.76,0 -5,-2.24 -5,-5 0,-2.76 2.24,-5 5,-5 2.76,0 5,2.24 5,5 z"
       transform="matrix(0.4,0,0,0.4,2.96,0.4)"
       id="path14329-1"
       style="fill-rule:evenodd;stroke:#000000;stroke-width:1pt;marker-start:none;marker-end:none"
       inkscape:connector-curvature="0" /></marker><marker
     refX="0"
     refY="0"
     orient="auto"
     id="Arrow2Mend-75"
     style="overflow:visible"><path
       d="M 8.7185878,4.0337352 -2.2072895,0.01601326 8.7185884,-4.0017078 c -1.7454984,2.3720609 -1.7354408,5.6174519 -6e-7,8.035443 z"
       transform="scale(-0.6,-0.6)"
       id="path45132-9"
       style="font-size:12px;fill-rule:evenodd;stroke-width:0.625;stroke-linejoin:round"
       inkscape:connector-curvature="0" /></marker><marker
     refX="0"
     refY="0"
     orient="auto"
     id="DotM-466"
     style="overflow:visible"><path
       d="m -2.5,-1 c 0,2.76 -2.24,5 -5,5 -2.76,0 -5,-2.24 -5,-5 0,-2.76 2.24,-5 5,-5 2.76,0 5,2.24 5,5 z"
       transform="matrix(0.4,0,0,0.4,2.96,0.4)"
       id="path14329-32"
       style="fill-rule:evenodd;stroke:#000000;stroke-width:1pt;marker-start:none;marker-end:none"
       inkscape:connector-curvature="0" /></marker><marker
     refX="0"
     refY="0"
     orient="auto"
     id="marker32938"
     style="overflow:visible"><path
       d="M 8.7185878,4.0337352 -2.2072895,0.01601326 8.7185884,-4.0017078 c -1.7454984,2.3720609 -1.7354408,5.6174519 -6e-7,8.035443 z"
       transform="scale(-0.6,-0.6)"
       id="path32940"
       style="font-size:12px;fill-rule:evenodd;stroke-width:0.625;stroke-linejoin:round"
       inkscape:connector-curvature="0" /></marker><marker
     refX="0"
     refY="0"
     orient="auto"
     id="marker32934"
     style="overflow:visible"><path
       d="m -2.5,-1 c 0,2.76 -2.24,5 -5,5 -2.76,0 -5,-2.24 -5,-5 0,-2.76 2.24,-5 5,-5 2.76,0 5,2.24 5,5 z"
       transform="matrix(0.4,0,0,0.4,2.96,0.4)"
       id="path32936"
       style="fill-rule:evenodd;stroke:#000000;stroke-width:1pt;marker-start:none;marker-end:none"
       inkscape:connector-curvature="0" /></marker><marker
     refX="0"
     refY="0"
     orient="auto"
     id="Arrow2Mend-7"
     style="overflow:visible"><path
       d="M 8.7185878,4.0337352 -2.2072895,0.01601326 8.7185884,-4.0017078 c -1.7454984,2.3720609 -1.7354408,5.6174519 -6e-7,8.035443 z"
       transform="scale(-0.6,-0.6)"
       id="path45132-2"
       style="font-size:12px;fill-rule:evenodd;stroke-width:0.625;stroke-linejoin:round"
       inkscape:connector-curvature="0" /></marker><marker
     refX="0"
     refY="0"
     orient="auto"
     id="DotM-46"
     style="overflow:visible"><path
       d="m -2.5,-1 c 0,2.76 -2.24,5 -5,5 -2.76,0 -5,-2.24 -5,-5 0,-2.76 2.24,-5 5,-5 2.76,0 5,2.24 5,5 z"
       transform="matrix(0.4,0,0,0.4,2.96,0.4)"
       id="path14329-9"
       style="fill-rule:evenodd;stroke:#000000;stroke-width:1pt;marker-start:none;marker-end:none"
       inkscape:connector-curvature="0" /></marker><marker
     refX="0"
     refY="0"
     orient="auto"
     id="Arrow2Mend-3"
     style="overflow:visible"><path
       d="M 8.7185878,4.0337352 -2.2072895,0.01601326 8.7185884,-4.0017078 c -1.7454984,2.3720609 -1.7354408,5.6174519 -6e-7,8.035443 z"
       transform="scale(-0.6,-0.6)"
       id="path45132-3"
       style="font-size:12px;fill-rule:evenodd;stroke-width:0.625;stroke-linejoin:round"
       inkscape:connector-curvature="0" /></marker><marker
     refX="0"
     refY="0"
     orient="auto"
     id="DotM-42"
     style="overflow:visible"><path
       d="m -2.5,-1 c 0,2.76 -2.24,5 -5,5 -2.76,0 -5,-2.24 -5,-5 0,-2.76 2.24,-5 5,-5 2.76,0 5,2.24 5,5 z"
       transform="matrix(0.4,0,0,0.4,2.96,0.4)"
       id="path14329-3"
       style="fill-rule:evenodd;stroke:#000000;stroke-width:1pt;marker-start:none;marker-end:none"
       inkscape:connector-curvature="0" /></marker><marker
     refX="0"
     refY="0"
     orient="auto"
     id="Arrow2Mend-9"
     style="overflow:visible"><path
       d="M 8.7185878,4.0337352 -2.2072895,0.01601326 8.7185884,-4.0017078 c -1.7454984,2.3720609 -1.7354408,5.6174519 -6e-7,8.035443 z"
       transform="scale(-0.6,-0.6)"
       id="path45132-4"
       style="font-size:12px;fill-rule:evenodd;stroke-width:0.625;stroke-linejoin:round"
       inkscape:connector-curvature="0" /></marker><marker
     refX="0"
     refY="0"
     orient="auto"
     id="DotM-4"
     style="overflow:visible"><path
       d="m -2.5,-1 c 0,2.76 -2.24,5 -5,5 -2.76,0 -5,-2.24 -5,-5 0,-2.76 2.24,-5 5,-5 2.76,0 5,2.24 5,5 z"
       transform="matrix(0.4,0,0,0.4,2.96,0.4)"
       id="path14329-8"
       style="fill-rule:evenodd;stroke:#000000;stroke-width:1pt;marker-start:none;marker-end:none"
       inkscape:connector-curvature="0" /></marker><clipPath
     id="clipPath6483-5"><rect
       width="548"
       height="280"
       x="67.578148"
       y="187.65627"
       id="rect6485-2"
       style="fill:#ffffff;fill-opacity:1;stroke:none" /></clipPath><clipPath
     id="clipPath6483-1-7-3-0"><rect
       width="548"
       height="280"
       x="67.578148"
       y="187.65627"
       id="rect6485-6-4-5-6"
       style="fill:#ffffff;fill-opacity:1;stroke:none" /></clipPath><marker
     refX="0"
     refY="0"
     orient="auto"
     id="Arrow2Lend-0"
     style="overflow:visible"><path
       d="M 8.7185878,4.0337352 -2.2072895,0.01601326 8.7185884,-4.0017078 c -1.7454984,2.3720609 -1.7354408,5.6174519 -6e-7,8.035443 z"
       transform="matrix(-1.1,0,0,-1.1,-1.1,0)"
       id="path45126-6"
       style="font-size:12px;fill-rule:evenodd;stroke-width:0.625;stroke-linejoin:round"
       inkscape:connector-curvature="0" /></marker><clipPath
     id="clipPath6483-1-7-3-9"><rect
       width="548"
       height="280"
       x="67.578148"
       y="187.65627"
       id="rect6485-6-4-5-8"
       style="fill:#ffffff;fill-opacity:1;stroke:none" /></clipPath><clipPath
     id="clipPath6483-1-7-3"><rect
       width="548"
       height="280"
       x="67.578148"
       y="187.65627"
       id="rect6485-6-4-5"
       style="fill:#ffffff;fill-opacity:1;stroke:none" /></clipPath><clipPath
     id="clipPath6483-1-7"><rect
       width="548"
       height="280"
       x="67.578148"
       y="187.65627"
       id="rect6485-6-4"
       style="fill:#ffffff;fill-opacity:1;stroke:none" /></clipPath><clipPath
     id="clipPath6483-1"><rect
       width="548"
       height="280"
       x="67.578148"
       y="187.65627"
       id="rect6485-6"
       style="fill:#ffffff;fill-opacity:1;stroke:none" /></clipPath><clipPath
     id="clipPath6483"><rect
       width="548"
       height="280"
       x="67.578148"
       y="187.65627"
       id="rect6485"
       style="fill:#ffffff;fill-opacity:1;stroke:none" /></clipPath><clipPath
     id="clipPath22"><path
       d="M 0,792 1224,792 1224,0 0,0 0,792 z"
       id="path24"
       inkscape:connector-curvature="0" /></clipPath><clipPath
     id="clipPath3169"><rect
       width="748.77557"
       height="428.80975"
       x="48.992397"
       y="105.34417"
       id="rect3171"
       style="fill:#f5f5f4;fill-opacity:1;stroke:#888a85;stroke-width:2;stroke-miterlimit:4;stroke-opacity:1;stroke-dasharray:none;stroke-dashoffset:0" /></clipPath><marker
     refX="0"
     refY="0"
     orient="auto"
     id="Arrow2Lend"
     style="overflow:visible"><path
       d="M 8.7185878,4.0337352 -2.2072895,0.01601326 8.7185884,-4.0017078 c -1.7454984,2.3720609 -1.7354408,5.6174519 -6e-7,8.035443 z"
       transform="matrix(-1.1,0,0,-1.1,-1.1,0)"
       id="path45126"
       style="font-size:12px;fill-rule:evenodd;stroke-width:0.625;stroke-linejoin:round"
       inkscape:connector-curvature="0" /></marker><marker
     refX="0"
     refY="0"
     orient="auto"
     id="Arrow2Mend"
     style="overflow:visible"><path
       d="M 8.7185878,4.0337352 -2.2072895,0.01601326 8.7185884,-4.0017078 c -1.7454984,2.3720609 -1.7354408,5.6174519 -6e-7,8.035443 z"
       transform="scale(-0.6,-0.6)"
       id="path45132"
       style="font-size:12px;fill-rule:evenodd;stroke-width:0.625;stroke-linejoin:round"
       inkscape:connector-curvature="0" /></marker><marker
     refX="0"
     refY="0"
     orient="auto"
     id="DotL"
     style="overflow:visible"><path
       d="m -2.5,-1 c 0,2.76 -2.24,5 -5,5 -2.76,0 -5,-2.24 -5,-5 0,-2.76 2.24,-5 5,-5 2.76,0 5,2.24 5,5 z"
       transform="matrix(0.8,0,0,0.8,5.92,0.8)"
       id="path14326"
       style="fill-rule:evenodd;stroke:#000000;stroke-width:1pt;marker-start:none;marker-end:none"
       inkscape:connector-curvature="0" /></marker><marker
     refX="0"
     refY="0"
     orient="auto"
     id="DotM"
     style="overflow:visible"><path
       d="m -2.5,-1 c 0,2.76 -2.24,5 -5,5 -2.76,0 -5,-2.24 -5,-5 0,-2.76 2.24,-5 5,-5 2.76,0 5,2.24 5,5 z"
       transform="matrix(0.4,0,0,0.4,2.96,0.4)"
       id="path14329"
       style="fill-rule:evenodd;stroke:#000000;stroke-width:1pt;marker-start:none;marker-end:none"
       inkscape:connector-curvature="0" /></marker></defs>
<path
   d="m 6.4632633,19 c -0.2483691,0 -0.4483196,0.19995 -0.4483196,0.448319 l 0,1.139477 C 5.4350306,20.731757 4.8768675,20.96346 4.3524286,21.278955 L 3.5491908,20.475717 c -0.1756233,-0.175623 -0.4594955,-0.175623 -0.6351188,0 l -1.4570359,1.457035 c -0.1756231,0.175624 -0.1756231,0.459495 0,0.635119 L 2.260274,23.37111 c -0.313025,0.522907 -0.5300778,1.087399 -0.6724782,1.662514 l -1.13947702,0 C 0.19995019,25.033624 0,25.233574 0,25.481942 l 0,2.054794 c 0,0.248369 0.19995019,0.448319 0.44831883,0.448319 l 1.12079707,0 c 0.1439376,0.580431 0.375399,1.137636 0.6911581,1.662516 l -0.8032379,0.803238 c -0.1756231,0.175623 -0.1756231,0.459495 0,0.635119 l 1.4570359,1.457036 c 0.1756233,0.175623 0.4594955,0.175623 0.6351188,0 l 0.8032378,-0.803238 c 0.5267306,0.31768 1.0825003,0.528464 1.6625151,0.672478 l 0,1.139477 C 6.0149437,33.80005 6.2148942,34 6.4632633,34 l 2.0547951,0 c 0.2483672,0 0.4483172,-0.19995 0.4483172,-0.448319 l 0,-1.139477 c 0.5812547,-0.143245 1.1368054,-0.357079 1.6625154,-0.672478 l 0.803238,0.803238 c 0.175624,0.175623 0.459496,0.175623 0.635119,0 l 1.457036,-1.457036 c 0.175623,-0.175624 0.175623,-0.459496 0,-0.635119 l -0.803238,-0.803238 c 0.31615,-0.52393 0.546866,-1.085608 0.691158,-1.662515 l 1.139478,0 C 14.80005,27.985055 15,27.785105 15,27.536736 l 0,-2.054793 c 0,-0.248369 -0.19995,-0.448319 -0.448319,-0.448319 l -1.139477,0 C 13.269112,24.45721 13.03361,23.892839 12.721046,23.37111 l 0.803238,-0.803239 c 0.175623,-0.175624 0.175623,-0.459495 0,-0.635119 l -1.457036,-1.457035 c -0.175623,-0.175624 -0.459495,-0.175624 -0.635119,0 l -0.803238,0.803238 C 10.103967,20.963882 9.5440359,20.730738 8.9663756,20.587796 l 0,-1.139477 C 8.9663756,19.19995 8.7664256,19 8.5180584,19 L 6.4632633,19 z M 7.41594,23.669987 c 0.7263956,-0.01928 1.4671847,0.226365 2.036115,0.765879 1.137859,1.079028 1.191106,2.878329 0.1120791,4.016189 C 8.4877702,29.587106 6.6867483,29.636529 5.547945,28.564135 4.4100858,27.485106 4.3568381,25.685805 5.4358655,24.547945 5.9753798,23.979016 6.6895448,23.689266 7.41594,23.669988 z"
   id="rect3381-0"
   style="fill:#555555;fill-opacity:1;stroke:none"
   inkscape:connector-curvature="0" /><path
   inkscape:connector-curvature="0"
   style="fill:#808080;fill-opacity:1;stroke:none"
   id="path3059"
   d="M 6.4632633,0 C 6.2148942,0 6.0149437,0.19995 6.0149437,0.448319 l 0,1.139477 C 5.4350306,1.731758 4.8768675,1.96346 4.3524286,2.278955 L 3.5491908,1.475717 c -0.1756233,-0.175624 -0.4594955,-0.175624 -0.6351188,0 L 1.4570361,2.932752 c -0.1756231,0.175624 -0.1756231,0.459495 0,0.635119 L 2.260274,4.37111 C 1.947249,4.894016 1.7301961,5.458508 1.5877958,6.033624 l -1.13947702,0 C 0.19995019,6.033624 0,6.233574 0,6.481942 l 0,2.054794 c 0,0.248369 0.19995019,0.448319 0.44831883,0.448319 l 1.12079707,0 c 0.1439376,0.580431 0.375399,1.137636 0.6911581,1.662516 l -0.8032379,0.803238 c -0.1756231,0.175623 -0.1756231,0.459495 0,0.635119 l 1.4570359,1.457036 c 0.1756233,0.175623 0.4594955,0.175623 0.6351188,0 l 0.8032378,-0.803238 c 0.5267306,0.31768 1.0825003,0.528464 1.6625151,0.672478 l 0,1.139477 C 6.0149437,14.80005 6.2148942,15 6.4632633,15 l 2.0547951,0 c 0.2483672,0 0.4483172,-0.19995 0.4483172,-0.448319 l 0,-1.139477 c 0.5812547,-0.143245 1.1368054,-0.357079 1.6625154,-0.672478 l 0.803238,0.803238 c 0.175624,0.175623 0.459496,0.175623 0.635119,0 l 1.457036,-1.457035 c 0.175623,-0.175625 0.175623,-0.459497 0,-0.63512 l -0.803238,-0.803238 c 0.31615,-0.52393 0.546866,-1.085608 0.691158,-1.662515 l 1.139478,0 C 14.80005,8.985055 15,8.785105 15,8.536736 L 15,6.481943 C 15,6.233574 14.80005,6.033624 14.551681,6.033624 l -1.139477,0 C 13.269112,5.45721 13.03361,4.892839 12.721046,4.37111 l 0.803238,-0.803239 c 0.175623,-0.175624 0.175623,-0.459495 0,-0.635119 L 12.067248,1.475717 c -0.175623,-0.175624 -0.459495,-0.175624 -0.635119,0 L 10.628891,2.278955 C 10.103967,1.963883 9.5440359,1.730738 8.9663756,1.587796 l 0,-1.139477 C 8.9663756,0.19995 8.7664256,0 8.5180584,0 L 6.4632633,0 z M 7.41594,4.669988 c 0.7263956,-0.01928 1.4671847,0.226364 2.036115,0.765877 1.137859,1.079028 1.191106,2.87833 0.1120791,4.01619 C 8.4877702,10.587105 6.6867483,10.636528 5.547945,9.564134 4.4100858,8.485107 4.3568381,6.685805 5.4358655,5.547945 5.9753798,4.979016 6.6895448,4.689265 7.41594,4.669988 z" /></svg>